<?xml version="1.0" encoding="UTF-8"?>
<svg xmlns="http://www.w3.org/2000/svg" xmlns:xlink="http://www.w3.org/1999/xlink" width="40pt" height="40pt" viewBox="0 0 40 40" version="1.1">
<g id="surface1">
<path style=" stroke:none;fill-rule:nonzero;fill:rgb(25.098039%,25.098039%,25.098039%);fill-opacity:1;" d="M 36.117188 37.800781 C 36.117188 37.800781 35.964844 24.617188 33.191406 21.949219 C 31.609375 20.425781 28.703125 18.328125 27.886719 16.949219 C 26.445312 18.332031 24.796875 18.5625 24.796875 18.5625 C 25.585938 18.230469 26.722656 17.261719 27.671875 16.367188 C 27.609375 15.507812 27.515625 9.027344 24.925781 4.917969 C 23.613281 2.832031 22.308594 1.960938 18.707031 2.140625 C 17.101562 2.222656 16.167969 2.933594 13.808594 5.035156 C 11.449219 7.140625 11.65625 14.992188 11.65625 16.527344 C 11.65625 16.722656 11.625 16.914062 11.558594 17.109375 C 12.308594 17.742188 13.398438 18.59375 14.300781 19.03125 L 11.171875 17.863281 C 10.398438 18.988281 8.769531 20.144531 6.882812 21.300781 C 4.242188 22.917969 3.878906 37.882812 3.878906 37.882812 L 7.304688 37.882812 C 7.742188 35.746094 8.300781 32.507812 8.300781 30.066406 C 8.300781 30.066406 8.625 34.800781 7.898438 37.882812 L 13.597656 37.882812 C 13.222656 35.246094 12.792969 32.996094 12.792969 32.996094 C 13.359375 34.890625 13.777344 36.503906 14.082031 37.882812 L 14.648438 37.882812 C 14.390625 36.648438 14.179688 35.410156 14.179688 34.652344 C 14.179688 34.652344 14.582031 36.183594 14.957031 37.882812 L 17.320312 37.882812 C 17.066406 34.003906 16.023438 28.558594 16.023438 28.558594 C 17.367188 33.054688 17.886719 35.980469 18 37.882812 L 19.839844 37.882812 C 19.839844 37.882812 20.753906 24.746094 19.210938 21.042969 C 19.210938 21.042969 19.210938 21.042969 19.214844 21.042969 C 18.972656 20.660156 18.699219 20.328125 18.382812 20.058594 C 14.230469 16.5 13.351562 14.34375 13.160156 10.300781 C 12.972656 6.253906 16.914062 3.585938 18.894531 3.503906 C 20.402344 3.441406 23.707031 5.851562 24.558594 7.46875 C 25.40625 9.085938 25.175781 13.667969 22.628906 17.46875 C 21.394531 19.316406 20.191406 20.867188 19.625 22.523438 C 20.054688 23.710938 20.917969 25.789062 21.160156 28.902344 C 21.433594 32.375 21.160156 37.800781 21.160156 37.800781 L 24.113281 37.800781 C 24.246094 35.179688 24.097656 32.09375 24.097656 32.09375 C 24.632812 34.597656 24.75 36.445312 24.667969 37.800781 L 26.597656 37.800781 C 26.660156 32.800781 27.609375 26.078125 27.609375 26.078125 C 27.375 30.101562 27.382812 34.492188 27.445312 37.800781 L 31.621094 37.800781 C 31.679688 36.34375 31.796875 34.773438 32.023438 33.910156 C 32.023438 33.910156 32.023438 35.855469 31.925781 37.800781 Z M 16.988281 20.285156 C 16.988281 20.285156 14.226562 21 12.425781 19.457031 C 12.425781 19.457031 13.742188 20.511719 16.988281 20.285156 Z M 22.695312 21.113281 C 22.734375 21.101562 22.777344 21.089844 22.816406 21.074219 C 22.738281 21.097656 22.695312 21.113281 22.695312 21.113281 Z M 22.859375 21.0625 C 24.429688 20.566406 26.554688 19.230469 26.554688 19.230469 C 25.40625 20.21875 23.4375 20.882812 22.859375 21.0625 Z M 22.859375 21.0625 "/>
</g>
</svg>
